# xmcd
#
# Track frame offsets: 
#        150
#        11540
#        22986
#        33967
#        45842
#        56597
#        69343
#        80884
#        92893
#        105459
#        119894
#        130582
#
# Disc length: 1934 seconds
#
# Revision: 0
# Processed by: cddbd v1.5.2PL0 Copyright (c) Steve Scherf et al.
# Submitted via: ExactAudioCopy v1.3
#
DISCID=93078c0c
DTITLE=old ditch river hoppers - long gone done
DYEAR=2018
DGENRE=bluegrass
TTITLE0=Long gone done
TTITLE1=Rabbit in a log
TTITLE2=Jolene
TTITLE3=Clinch mountain backstab
TTITLE4=I'm head over heels in love
TTITLE5=Poor Ellen Smith
TTITLE6=The kitten and the cat
TTITLE7=High on the mountain
TTITLE8=Coulda woulda shoulda
TTITLE9=Black mountain moonshiners
TTITLE10=Walkin' the dog
TTITLE11=Isabelle
EXTD=
EXTT0=
EXTT1=
EXTT2=
EXTT3=
EXTT4=
EXTT5=
EXTT6=
EXTT7=
EXTT8=
EXTT9=
EXTT10=
EXTT11=
PLAYORDER=
